<?xml version="1.0" ?><svg height="24" id="svg3171" version="1.1" viewBox="0 0 6.3499999 6.3500002" width="24" xmlns="http://www.w3.org/2000/svg" xmlns:cc="http://creativecommons.org/ns#" xmlns:dc="http://purl.org/dc/elements/1.1/" xmlns:inkscape="http://www.inkscape.org/namespaces/inkscape" xmlns:rdf="http://www.w3.org/1999/02/22-rdf-syntax-ns#" xmlns:sodipodi="http://sodipodi.sourceforge.net/DTD/sodipodi-0.dtd" xmlns:svg="http://www.w3.org/2000/svg"><defs id="defs3165"/><g id="layer1"><path d="m 3.1713825,0.52919958 a 0.26460979,0.26460048 0 0 0 -0.080098,0.01343 L 0.71003455,1.3363516 a 0.26460979,0.26460048 0 0 0 -0.18086809,0.251139 c 0,1.124439 0.4201062,2.10209 0.94206184,2.832802 0.5219555,0.730712 1.1227787,1.2211939 1.6200562,1.3869469 a 0.26460979,0.26460048 0 0 0 0.1674315,0 C 3.7559935,5.6414865 4.3568165,5.1510046 4.8787722,4.4202926 5.400728,3.6895806 5.8208336,2.7119296 5.8208336,1.5874906 A 0.26460979,0.26460048 0 0 0 5.6399661,1.3363516 L 3.258716,0.54262959 a 0.26460979,0.26460048 0 0 0 -0.087334,-0.01343 z m 0.00258,1.05881302 a 0.26460995,0.26460064 0 0 1 0.083716,0.01344 l 1.3244669,0.4413011 a 0.26460995,0.26460064 0 0 1 0.1793174,0.2501049 c 0,0.6540851 -0.2432003,1.2206929 -0.5446697,1.6427361 -0.3014696,0.4220419 -0.6382257,0.705366 -0.9591145,0.8123248 a 0.26460995,0.26460064 0 0 1 -0.1658814,0 C 2.7709086,4.6409607 2.434152,4.3576366 2.1326825,3.9355947 1.8312131,3.5135525 1.5880129,2.9469446 1.5880129,2.2928586 a 0.26460995,0.26460064 0 0 1 0.1793174,-0.250105 l 1.3244669,-0.441301 a 0.26460995,0.26460064 0 0 1 0.082165,-0.01344 z m 0.00207,0.542583 -1.0004557,0.334335 c 0.042208,0.440447 0.1716106,0.857655 0.3891236,1.1621621 0.220025,0.3080239 0.4660002,0.4704929 0.6113321,0.5446498 C 3.3215527,4.0972625 3.5676832,3.9346345 3.7873641,3.6270927 4.0049728,3.3224506 4.1338667,2.9056156 4.1759709,2.4649306 Z" id="path2295" style="color:#000000;font-style:normal;font-variant:normal;font-weight:normal;font-stretch:normal;font-size:medium;line-height:normal;font-family:sans-serif;font-variant-ligatures:normal;font-variant-position:normal;font-variant-caps:normal;font-variant-numeric:normal;font-variant-alternates:normal;font-variant-east-asian:normal;font-feature-settings:normal;font-variation-settings:normal;text-indent:0;text-align:start;text-decoration:none;text-decoration-line:none;text-decoration-style:solid;text-decoration-color:#000000;letter-spacing:normal;word-spacing:normal;text-transform:none;writing-mode:lr-tb;direction:ltr;text-orientation:mixed;dominant-baseline:auto;baseline-shift:baseline;text-anchor:start;white-space:normal;shape-padding:0;shape-margin:0;inline-size:0;clip-rule:nonzero;display:inline;overflow:visible;visibility:visible;isolation:auto;mix-blend-mode:normal;color-interpolation:sRGB;color-interpolation-filters:linearRGB;solid-color:#000000;solid-opacity:1;vector-effect:none;fill:#000000;fill-opacity:1;fill-rule:nonzero;stroke:none;stroke-width:0.529156;stroke-linecap:round;stroke-linejoin:round;stroke-miterlimit:4;stroke-dasharray:none;stroke-dashoffset:0;stroke-opacity:1;color-rendering:auto;image-rendering:auto;shape-rendering:auto;text-rendering:auto;enable-background:accumulate;stop-color:#000000"/></g></svg>