<?xml version="1.0" ?><svg enable-background="new 0 0 64 64" version="1.1" viewBox="0 0 64 64" xml:space="preserve" xmlns="http://www.w3.org/2000/svg" xmlns:xlink="http://www.w3.org/1999/xlink"><g id="Glyph_copy_2"><path d="M61,4.709H3c-1.65,0-3,1.35-3,3v37.667c0,1.65,1.35,3,3,3h24v6.916h-9.125v4h28.25v-4H37v-6.916h24c1.65,0,3-1.35,3-3   V7.709C64,6.059,62.65,4.709,61,4.709z M32,13.045c3.351,0,6.067,2.706,6.067,6.045c0,3.339-2.716,6.045-6.067,6.045   c-3.351,0-6.067-2.706-6.067-6.045C25.933,15.751,28.649,13.045,32,13.045z M36.222,26.523L32,35.837l-4.222-9.314H32H36.222z    M19.702,39.187c0,0,0-1.307,0-6.944s6.15-5.718,6.15-5.718l5.862,12.662C31.753,39.187,19.702,39.187,19.702,39.187z    M44.298,39.187c0,0-12.051,0-12.012,0l5.862-12.662c0,0,6.15,0.081,6.15,5.718S44.298,39.187,44.298,39.187z"/></g></svg>